<svg xmlns="http://www.w3.org/2000/svg" viewBox="0 0 317.48 20.7"><defs><style>.cls-1{fill:gray;}</style></defs><title>bi_footer</title><g id="레이어_2" data-name="레이어 2"><g id="레이어_1-2" data-name="레이어 1"><path class="cls-1" d="M225.91.47h4.54c6.34,0,11.13,2.56,11.13,9.88s-4.79,9.89-11.13,9.89h-4.54Zm1.32,1.21V19h3c5.84,0,10.08-2.23,10.08-8.67S236,1.68,230.18,1.68Z"/><path class="cls-1" d="M257.27.47V1.68H246V9.42h10.6v1.21H246V19h11.64v1.22h-13V.47Z"/><path class="cls-1" d="M267.79,20.7a8.78,8.78,0,0,1-7.16-3.49l1.07-.8a7.4,7.4,0,0,0,6.09,3.11c3.36,0,5.5-1.43,5.53-4,0-2.29-1.46-3.72-3.63-4.44l-3.86-1.26c-2.86-1-4.76-2.26-4.76-5C261.07,1.68,264,0,267.46,0a8.36,8.36,0,0,1,6.22,2.67l-1,.85a6.8,6.8,0,0,0-5.12-2.31c-3.47-.05-5.15,1.49-5.15,3.58s1.46,3.08,3.75,3.86l3.68,1.21c3,1,4.82,2.67,4.82,5.61C274.64,18.89,271.75,20.7,267.79,20.7Z"/><path class="cls-1" d="M277.51.47h1.32V20.24h-1.32Z"/><path class="cls-1" d="M282.05,10.35c0-6.08,4-10.35,9.8-10.35a8,8,0,0,1,6.52,3.08l-.93.83a7.36,7.36,0,0,0-5.59-2.7c-5,0-8.48,3.75-8.48,9.14s3.47,9.14,8.48,9.14c2.34,0,4.38-.52,5.62-1.7v-6.2H292.1V10.38h6.69v7.87c-1.13,1.38-3.83,2.45-6.94,2.45C286.09,20.7,282.05,16.44,282.05,10.35Z"/><path class="cls-1" d="M316.16.47h1.32V20.24h-2L304,1.62V20.24H302.7V.47h2l11.45,18.61Z"/><path class="cls-1" d="M9.63,3.43l2.49,6H7c.27-.63,2.2-5.08,2.62-6M8.61.49,0,20.22H2.48l3.67-8.64h6.78l3.59,8.64h2.61L10.82.49Z"/><path class="cls-1" d="M38.82.49,32,16.15,25.22.49H22.07V20.22h2.35v-16l7,16h1.15l6.9-16v16h2.35V.49Z"/><polygon class="cls-1" points="92.17 0.49 92.17 20.22 106.08 20.22 106.08 18.03 94.52 18.03 94.52 11.12 105.02 11.12 105.02 8.93 94.52 8.93 94.52 2.67 105.64 2.67 105.64 0.49 92.17 0.49"/><path class="cls-1" d="M82.73,10.93c3.09-.53,4.73-2.29,4.73-5.13,0-3.53-2.39-5.31-7.1-5.31H72.12V8.93H66.9A9.72,9.72,0,0,0,56.8,0c-6,0-10.19,4.26-10.19,10.35S50.8,20.7,56.8,20.7A9.76,9.76,0,0,0,67,11.12h5.16v9.1h2.35v-9.1h5.81c.16.26,5.39,9.1,5.39,9.1h2.68s-5.23-8.66-5.62-9.29M56.8,18.52c-4.62,0-7.85-3.36-7.85-8.17s3.23-8.17,7.85-8.17,7.84,3.36,7.84,8.17-3.22,8.17-7.84,8.17M74.44,8.9V2.63h6.43c3.81,0,4.22,2.19,4.22,3.13S84.68,8.9,80.87,8.9Z"/><path class="cls-1" d="M113.43.49V20.22h1.31V10.58h4.69c2.81,0,5.82-1.32,5.82-5C125.25,1,120.87.49,119,.49ZM115,1.63h4.18c2.17,0,4.71,1,4.71,3.93s-2.37,3.88-4.59,3.88h-4.6V1.63ZM133,.49l-8.61,19.73h1.34l3.69-8.66h8.38l3.58,8.66h1.49L134.54.49Zm.42,1.67s.15-.35.26-.63l3.64,8.9h-7.41l3.51-8.27m11.54,8.19c0,6.1,4.19,10.35,10.18,10.35a8.53,8.53,0,0,0,7-3.25l.09-.11-1.08-.83-.09.11a7.7,7.7,0,0,1-5.92,2.94c-5.22,0-8.86-3.79-8.86-9.21s3.64-9.21,8.86-9.21a6.74,6.74,0,0,1,5.37,2.53l.09.11,1.09-.91-.1-.11A8.15,8.15,0,0,0,155.11,0c-6,0-10.18,4.26-10.18,10.35m52.78,0c0,6.1,4.19,10.35,10.18,10.35a8.54,8.54,0,0,0,7-3.25l.09-.11-1.09-.83-.08.11a7.72,7.72,0,0,1-5.92,2.94c-5.22,0-8.87-3.79-8.87-9.21s3.65-9.21,8.87-9.21a6.74,6.74,0,0,1,5.37,2.53l.09.11,1.09-.91-.1-.11A8.15,8.15,0,0,0,207.89,0c-6,0-10.18,4.26-10.18,10.35m-30.09,9.87h1.32V.49h-1.32ZM174.55.49V20.22h1.31V10.58h9.56V9.44h-9.56V1.63h10.28V.49ZM191.7,20.22H193V.49H191.7Z"/></g></g></svg>