<svg xmlns="http://www.w3.org/2000/svg" viewBox="0 0 38.54 49.78"><defs><style>.cls-1{fill:gray;}</style></defs><title>sns_pinterest</title><g id="레이어_2" data-name="레이어 2"><g id="레이어_1-2" data-name="레이어 1"><path class="cls-1" d="M20.44,0C6.85,0,0,9.74,0,17.86c0,4.92,1.86,9.3,5.86,10.93a1,1,0,0,0,1.43-.72c.13-.5.44-1.77.58-2.29a1.4,1.4,0,0,0-.41-1.6,8.23,8.23,0,0,1-1.89-5.61C5.57,11.35,11,4.88,19.65,4.88c7.68,0,11.9,4.69,11.9,11,0,8.24-3.65,15.2-9.07,15.2A4.42,4.42,0,0,1,18,25.53c.86-3.62,2.52-7.53,2.52-10.14,0-2.34-1.25-4.3-3.85-4.3-3.06,0-5.52,3.17-5.52,7.41A10.94,10.94,0,0,0,12,23L8.36,38.6c-1.09,4.63-.17,10.3-.09,10.87a.38.38,0,0,0,.68.16c.28-.37,3.93-4.86,5.16-9.36.35-1.27,2-7.86,2-7.86,1,1.9,3.9,3.57,7,3.57,9.19,0,15.43-8.38,15.43-19.6C38.54,7.9,31.35,0,20.44,0Z"/></g></g></svg>